<svg width="1129" height="409" viewBox="0 0 1129 409" fill="none" xmlns="http://www.w3.org/2000/svg">
<path fill-rule="evenodd" clip-rule="evenodd" d="M886.965 132.079C893.49 145.552 899.264 157.804 904.193 170.949C912.971 194.186 918.369 218.972 920.293 244.65C924.143 296.523 908.746 344.452 876.919 379.613C871.521 385.622 863.917 389.096 855.514 389.518C854.998 389.518 854.481 389.518 853.965 389.518C845.046 389.518 836.033 386.045 829.462 380.036C822.843 373.98 819.369 365.436 819.651 356.048C819.839 349.1 822.186 342.058 826.223 336.378C829.086 332.294 832.794 328.82 835.611 324.736C838.427 320.652 840.775 316.098 843.028 311.686L845.328 306.663C845.328 306.663 845.422 306.475 845.469 306.381C845.563 306.24 845.609 306.053 845.656 305.959C846.595 303.471 847.534 300.748 848.332 298.025C849.881 293.002 851.149 287.745 852.087 282.44C852.181 281.877 852.275 281.313 852.369 280.75C852.416 280.468 852.463 280.187 852.51 279.905L852.745 278.59C852.745 278.262 852.792 277.933 852.838 277.558C852.838 277.229 852.932 276.901 852.932 276.525C853.073 275.211 853.214 273.896 853.308 272.582C853.637 267.887 853.824 263.052 853.777 258.17C853.777 253.1 853.496 247.889 853.026 242.726C853.026 242.585 852.979 242.256 852.932 241.787C852.932 241.411 852.838 240.942 852.792 240.425C852.651 239.064 852.463 237.562 852.416 236.764C852.228 235.449 851.994 234.088 851.9 233.572C849.975 222.305 847.065 210.851 843.356 199.584C842.277 196.298 841.103 193.059 839.93 189.867C839.601 188.975 839.272 188.13 838.897 187.238L837.629 184.093C837.442 183.67 837.301 183.248 837.16 182.966C837.066 182.778 837.019 182.638 836.972 182.544C836.503 181.511 836.033 180.431 835.564 179.399C834.344 176.77 833.029 174.094 831.762 171.512L831.574 171.183C821.106 149.777 808.103 123.207 809.981 94.3836C811.905 64.5274 826.363 39.4125 841.056 16.2224C850.961 0.590111 870.113 -4.47981 886.589 4.25172C894.1 8.24193 899.827 15.706 902.221 24.6722C904.662 33.7793 903.395 43.168 898.747 50.4912L898.653 50.5851L898.231 51.2423C894.71 56.7817 891.096 62.5088 887.857 68.2359C881.754 78.986 876.262 90.4872 877.201 103.303C877.671 110.063 880.299 116.588 882.693 122.878L883.726 125.132C884.806 127.479 885.885 129.779 887.012 132.079H886.965ZM529.411 207.987C529.646 213.761 529.693 219.582 529.787 225.356C530.397 264.132 531.007 302.907 531.618 341.73C531.805 354.405 531.758 368.065 524.482 378.487C518.709 386.749 508.663 391.772 498.618 391.49C488.572 391.208 478.855 385.528 473.598 376.984C467.589 367.173 467.589 354.968 467.683 343.467C468.2 292.767 467.261 242.068 464.914 191.416C464.538 183.201 462.989 173.249 455.338 170.151C448.625 167.428 441.067 171.934 436.373 177.474C420.178 196.815 422.948 228.783 403.139 244.322C393.375 251.973 379.198 253.616 367.979 248.312C346.386 238.172 341.364 209.396 323.901 193.2C320.475 190.055 316.062 187.238 311.462 188.036C306.674 188.834 303.388 193.247 300.9 197.472C278.462 234.933 275.364 280.28 277.241 322.905C277.617 331.825 278.18 341.026 274.988 349.335C270.294 361.634 257.057 370.037 243.913 369.098C235.323 368.488 227.249 363.887 221.897 357.221C215.889 349.71 214.481 341.824 214.011 332.482C212.978 310.794 213.072 289.012 215.185 267.371C217.907 239.533 224.057 211.837 235.417 186.205C245.978 162.358 262.314 139.309 286.536 129.591C313.903 118.606 346.95 127.761 368.026 148.369C370.186 150.481 372.767 152.875 375.725 152.359C378.4 151.89 379.996 149.214 381.405 146.867C393.516 126.352 414.592 111.095 438.063 107.058C461.534 103.021 486.976 110.767 503.453 127.948C515.376 140.435 522.276 157.006 525.75 173.953C528.05 185.22 528.942 196.674 529.364 208.128L529.411 207.987ZM756.468 127.479C776.605 138.558 793.457 154.847 805.24 174.563C817.304 194.561 823.453 217.939 823.453 244.134C823.453 269.953 817.304 293.237 805.24 313.423C793.551 333.233 776.699 349.616 756.468 360.836C736.189 372.102 712.812 377.829 687.041 377.829C661.27 377.829 637.846 372.102 617.38 360.836C597.054 349.757 580.155 333.374 568.514 313.376C556.637 293.237 550.629 270.328 550.629 244.181C550.629 218.033 556.637 194.655 568.561 174.657C580.249 154.847 597.101 138.558 617.38 127.526C637.705 116.306 661.129 110.579 686.947 110.579H686.994C712.812 110.579 736.189 116.306 756.421 127.526L756.468 127.479ZM705.583 315.864C714.502 313.423 722.67 309.339 729.946 303.658C737.175 297.978 743.136 291.031 747.596 283.003C753.651 272.018 756.702 258.921 756.702 244.134C756.702 229.347 753.604 216.155 747.549 204.936C741.869 194.092 733.325 185.22 722.81 179.117C712.155 173.155 699.95 169.963 687.698 169.963C675.446 169.963 663.289 173.155 652.539 179.117C642.118 185.266 633.668 194.186 628.082 204.889C621.98 216.155 618.929 229.347 618.929 244.134C618.929 258.921 621.98 272.018 628.035 283.003C633.762 293.706 642.259 302.673 652.633 308.916C660.519 313.517 669.203 316.474 678.357 317.695C687.51 318.915 696.664 318.258 705.583 315.864V315.864ZM117.218 220.474C129.704 225.45 142.003 231.412 153.738 238.078C164.816 244.275 174.346 252.631 182.044 262.911C189.508 273.145 193.31 286.383 193.31 302.391C193.31 326.896 184.954 346.94 168.431 361.915C152.095 376.75 129.939 384.261 102.478 384.261H100.882C85.6261 384.261 70.5109 381.585 56.0529 376.327C42.6276 371.445 30.1412 364.357 18.9222 355.343C15.5893 352.668 12.3504 349.804 9.20528 346.847C3.43147 341.495 0.14556 333.984 0.004735 325.816C-0.13609 317.648 2.86817 309.949 8.50115 304.222L9.72163 302.954C20.4243 291.969 37.6518 291.406 48.9648 301.64C51.4527 303.893 54.0814 306.146 56.6632 308.212C63.235 313.564 70.464 317.788 78.2563 320.84C85.0159 323.469 92.151 324.83 99.4269 324.83C107.642 324.83 114.073 322.999 118.532 319.431C122.663 316.098 124.588 311.733 124.588 305.63C124.681 300.466 122.898 295.631 119.612 291.876C115.011 286.9 109.566 283.05 103.464 280.374H103.37C95.7185 276.807 86.6119 273.051 76.2378 269.249H76.097C65.1126 264.789 54.2692 259.672 43.8951 253.898C33.0516 247.983 23.4755 239.439 16.1996 229.206C8.7828 218.69 5.02748 205.875 5.02748 189.82C5.02748 173.765 9.15833 160.152 17.3262 149.261C25.7756 138.182 37.0416 129.873 49.9505 125.272C63.5166 120.203 77.7869 117.668 92.2918 117.808C105.295 117.715 118.344 119.827 130.831 123.958C142.331 127.76 153.269 133.112 163.314 139.919C165.145 141.139 167.023 142.501 168.76 143.862C175.331 148.885 179.509 156.537 180.26 164.94C181.011 173.437 178.195 181.793 172.515 187.989C162.375 199.068 145.805 200.382 133.929 191.088C129.986 187.989 125.714 185.173 121.349 182.825C111.913 177.568 101.305 174.751 90.6488 174.704C84.2178 174.704 78.9135 176.112 74.9704 178.835L74.8765 178.929C73.3744 179.915 72.1069 181.323 71.3089 183.013C70.464 184.703 70.0415 186.581 70.1354 188.506V188.787C70.1354 192.59 71.6845 195.876 74.9704 198.974C79.8992 203.434 85.4383 207.001 91.4938 209.583C99.1453 213.01 107.782 216.719 117.171 220.521L117.218 220.474ZM344.931 319.103C344.274 306.475 336.669 296.945 327.563 297.415C318.503 297.884 311.978 308.212 312.635 320.84C312.917 326.473 314.654 331.778 317.47 335.721C320.568 340.087 324.887 342.575 329.347 342.575C329.581 342.575 329.769 342.575 330.004 342.575C339.063 342.105 345.588 331.825 344.931 319.15V319.103ZM414.968 297.415C424.028 296.945 431.632 306.475 432.336 319.103C432.993 331.778 426.469 342.058 417.409 342.528C417.174 342.528 416.986 342.528 416.752 342.528C412.292 342.528 408.021 340.087 404.875 335.674C402.059 331.731 400.322 326.426 400.04 320.793C399.383 308.165 405.908 297.884 414.968 297.368V297.415ZM376.757 356.658C361.126 355.672 351.362 358.113 345.964 364.216C342.208 368.488 340.941 374.168 342.255 381.069C344.743 394.26 359.342 409 375.255 409C391.169 409 406.706 394.917 407.269 380.083C407.739 367.455 395.206 357.878 376.757 356.705V356.658ZM1119.09 262.536C1111.72 251.973 1102.43 243.289 1091.58 236.811C1080.04 229.722 1067.92 223.432 1055.58 218.033C1046.28 213.902 1037.79 209.959 1030.23 206.297C1024.27 203.528 1018.82 199.772 1014.04 195.219C1010.84 191.979 1009.39 188.693 1009.53 184.891V184.609C1009.53 182.685 1009.95 180.807 1010.89 179.164C1011.78 177.521 1013.05 176.159 1014.6 175.221L1014.69 175.127C1018.73 172.498 1024.08 171.277 1030.51 171.465C1041.17 171.841 1051.64 174.939 1060.93 180.525C1065.25 183.06 1069.43 185.971 1073.28 189.21C1084.82 198.88 1101.44 198.082 1111.91 187.332C1117.78 181.323 1120.83 173.014 1120.36 164.517C1119.89 156.114 1115.95 148.322 1109.56 143.111C1107.82 141.703 1106.04 140.294 1104.21 139.027C1094.35 131.892 1083.6 126.164 1072.24 122.033C1060.09 117.574 1047.36 115.086 1034.5 114.71H1033.89C1019.43 114.147 1005.02 116.212 991.316 120.813C978.266 125.038 966.766 132.924 957.941 143.768C949.444 154.378 944.891 167.897 944.374 183.905C943.858 199.913 947.238 212.869 954.326 223.619C961.273 234.088 970.568 242.913 981.224 249.157C991.41 255.259 1002.07 260.705 1012.91 265.446H1013.05C1023.28 269.624 1032.3 273.661 1039.81 277.417H1039.9C1045.96 280.327 1051.26 284.365 1055.67 289.481C1058.86 293.331 1060.46 298.213 1060.23 303.377C1060.04 309.479 1057.97 313.798 1053.75 316.99C1049.19 320.417 1042.67 322.06 1034.46 321.826C1027.18 321.591 1020.09 319.995 1013.43 317.178C1005.73 313.892 998.639 309.432 992.255 303.893C989.673 301.687 987.138 299.387 984.744 297.086C973.76 286.524 956.532 286.571 945.454 297.18L944.14 298.401C938.366 303.987 935.08 311.592 934.986 319.76C934.892 327.881 937.943 335.533 943.576 341.213C946.581 344.265 949.773 347.222 953.012 349.992C963.949 359.334 976.201 366.798 989.485 372.102C1003.8 377.829 1018.78 380.928 1034.03 381.397H1035.63C1063.04 382.289 1085.43 375.482 1102.24 361.164C1119.18 346.659 1128.2 326.896 1128.95 302.438C1129.46 286.43 1126.09 273.051 1118.95 262.677L1119.09 262.536Z" fill="#FF6657"/>
</svg>
